<?xml version="1.0" encoding="utf-8"?>
<!-- Generator: Adobe Illustrator 20.1.0, SVG Export Plug-In . SVG Version: 6.00 Build 0)  -->
<svg version="1.1" id="Layer_1" xmlns="http://www.w3.org/2000/svg" xmlns:xlink="http://www.w3.org/1999/xlink" x="0px" y="0px"
	 viewBox="0 0 250 250" style="enable-background:new 0 0 250 250;" xml:space="preserve">
<g id="ghosts">
	<path d="M263.9,475.2c-0.1,0-13.6-5-19.5-20.4c-5-13-2.4-27.9,6.8-38.8c5.2-6.2,22.2-27.9,22.2-46.7c0-36.6-29.7-66.3-66.3-66.3
		s-66.3,29.7-66.3,66.3c0,24.3,11.4,51.2,30.6,72c16,17.3,44.8,38.6,91,41.5c0.1,0,0.2,0,0.2,0c1.8,0,3.4-1.3,3.8-3.1
		C266.8,477.7,265.7,475.8,263.9,475.2z M177,436c-17.9-19.4-28.5-44.3-28.5-66.7c0-32.3,26.2-58.5,58.5-58.5s58.5,26.2,58.5,58.5
		c0,12.8-10.5,29.9-20.4,41.7c-10.9,13.1-14,30.9-8.1,46.6l0,0c2.6,6.8,6.3,11.8,10.1,15.6C212.6,467.3,190.2,450.2,177,436z"/>
	<g>
		<path d="M178.6,358.3v16.1h-16.1v-16.3c0-11,10.3-12.4,10.3-12.4l1.4,3.2c0,0-4.6,0.7-5.5,4.4c-0.9,2.8,0.9,5,0.9,5L178.6,358.3
			L178.6,358.3z"/>
		<path d="M199.3,358.3v16.1h-16.1v-16.3c0-11,10.3-12.4,10.3-12.4l1.4,3.2c0,0-4.6,0.7-5.5,4.4c-0.9,2.8,0.9,5,0.9,5L199.3,358.3
			L199.3,358.3z"/>
	</g>
	<g>
		<path d="M231.3,374.8v-16.1h16.1V375c0,11-10.3,12.4-10.3,12.4l-1.4-3.2c0,0,4.6-0.7,5.5-4.4c0.9-2.8-0.9-5-0.9-5L231.3,374.8
			L231.3,374.8z"/>
		<path d="M210.6,374.8v-16.1h16.1V375c0,11-10.3,12.4-10.3,12.4l-1.4-3.2c0,0,4.6-0.7,5.5-4.4c0.9-2.8-0.9-5-0.9-5L210.6,374.8
			L210.6,374.8z"/>
	</g>
</g>
<g id="bulk">
	<path d="M302.2,420.4h-9.5c-5.7-13.7-5.7-30.2,0-43.8h9.5c1.4,0,2.5-1.1,2.5-2.5c0-1.4-1.1-2.5-2.5-2.5h-15.9
		c5.1-10.9,4.6-23.6-1.3-34.3c5.5-10.2,5.3-22.4-0.8-32.4c-0.4-0.7-1.3-1.2-2.1-1.2h-17.1c-1.4,0-2.5,1.1-2.5,2.5
		c0,1.4,1.1,2.5,2.5,2.5h15.7c4.5,8.2,4.5,18,0,26.2h-55.1c2.7-6,3.4-12.7,2.2-19.3c-0.3-1.3-1.6-2.2-2.9-2c-1.3,0.3-2.2,1.6-2,2.9
		c1.2,6.3,0.2,12.7-2.8,18.3h-7.6c3.7-8.4,3.7-17.9,0-26.2h7.6c0.3,0.6,0.6,1.2,0.9,1.7c0.4,0.9,1.3,1.5,2.3,1.5
		c0.3,0,0.7-0.1,1-0.2c1.1-0.5,1.7-1.8,1.3-3H257c1.4,0,2.5-1.1,2.5-2.5s-1.1-2.5-2.5-2.5H136.8c-1.4,0-2.5,1.1-2.5,2.5
		s1.1,2.5,2.5,2.5h8.1c4.5,8.2,4.5,18,0,26.2h-33c-1.4,0-2.5,1.1-2.5,2.5c0,1.4,1.1,2.5,2.5,2.5h9.7c5.5,9.9,5.5,21.8,0,31.6h-9.7
		c-1.4,0-2.5,1.1-2.5,2.5c0,1.4,1.1,2.5,2.5,2.5h16.4c-5.9,15-5.4,32.9,1.5,47.4c0.4,0.9,1.3,1.4,2.2,1.4h170.1
		c1.4,0,2.5-1.1,2.5-2.5C304.6,421.5,303.5,420.4,302.2,420.4L302.2,420.4z M285,384.3h-8.6c-1.4,0-2.5,1.1-2.5,2.5
		c0,1.4,1.1,2.5,2.5,2.5h7.7c-0.3,2.3-0.5,4.7-0.6,7.1h-27.8c-1.4,0-2.5,1.1-2.5,2.5c0,1.4,1.1,2.5,2.5,2.5h27.8
		c0.1,2.4,0.3,4.7,0.7,7.1h-15.8c-1.4,0-2.5,1.1-2.5,2.5s1.1,2.5,2.5,2.5h16.8c0.6,2.4,1.3,4.8,2.2,7.1h-58.9
		c-1-2.3-1.8-4.6-2.4-7.1h34.6c1.4,0,2.5-1.1,2.5-2.5s-1.1-2.5-2.5-2.5H225c-0.4-2.3-0.7-4.7-0.8-7.1h21.6c1.4,0,2.5-1.1,2.5-2.5
		c0-1.4-1.1-2.5-2.5-2.5h-21.6c0.1-2.4,0.3-4.7,0.7-7.1h44.3c1.4,0,2.5-1.1,2.5-2.5c0-1.4-1.1-2.5-2.5-2.5h-43.3
		c0.7-2.7,1.5-5.3,2.6-7.8h58.9C286.3,379,285.6,381.6,285,384.3L285,384.3z M219.9,420.4c-3.8-9-5.1-19.4-3.8-29.6
		c0.2-1.4-0.8-2.6-2.1-2.8c-1.4-0.2-2.6,0.8-2.8,2.1c-1.3,10.3-0.1,20.9,3.4,30.2h-10c-5.7-13.7-5.7-30.2,0-43.8h10.1
		c-0.7,2-1.4,4-1.9,6.1c-0.3,1.3,0.5,2.7,1.8,3c0.2,0.1,0.4,0.1,0.6,0.1c1.1,0,2.1-0.7,2.4-1.9c0.7-2.5,1.5-5,2.5-7.4h3.1
		c-5.2,13.8-5.2,30,0,43.8L219.9,420.4L219.9,420.4z M191.3,339.9h2.9c5.5,9.9,5.5,21.8,0,31.6h-2.9C196,361.5,196,350,191.3,339.9
		L191.3,339.9z M205.1,308.7h1.7c4.5,8.2,4.5,18,0,26.2h-1.7C208.8,326.5,208.8,317,205.1,308.7L205.1,308.7z M199.8,339.9h9.8
		c5.5,9.9,5.5,21.8,0,31.6h-9.8C204.5,361.5,204.5,350,199.8,339.9L199.8,339.9z M280.7,339.9c5.5,9.9,5.5,21.8,0,31.6h-65.5
		c4.7-10.1,4.7-21.6,0-31.6H280.7z M152.4,328.8h32.4c1.4,0,2.5-1.1,2.5-2.5c0-1.4-1.1-2.5-2.5-2.5h-31.7c0.1-1.6,0.1-3.2-0.1-4.8
		h19c1.4,0,2.5-1.1,2.5-2.5c0-1.4-1.1-2.5-2.5-2.5h-19.8c-0.4-1.8-1.1-3.6-1.8-5.4h49.2c0.9,1.7,1.7,3.5,2.2,5.4h-21.3
		c-1.4,0-2.5,1.1-2.5,2.5c0,1.4,1.1,2.5,2.5,2.5h22.2c0.2,1.6,0.2,3.2,0.1,4.8h-7.5c-1.4,0-2.5,1.1-2.5,2.5c0,1.4,1.1,2.5,2.5,2.5
		h6.6c-0.6,2.1-1.4,4.1-2.4,6.1h-49.2C151.3,332.9,151.9,330.9,152.4,328.8L152.4,328.8z M185.8,339.9c0.7,1.3,1.4,2.7,1.9,4h-58.9
		c-0.5-1.4-1-2.7-1.6-4H185.8z M128.9,367h9.5c1.4,0,2.5-1.1,2.5-2.5c0-1.4-1.1-2.5-2.5-2.5h-8.3c0.2-1.3,0.4-2.7,0.5-4h39.4
		c1.4,0,2.5-1.1,2.5-2.5c0-1.4-1.1-2.5-2.5-2.5h-39.4c-0.1-1.4-0.3-2.7-0.5-4h59.1c0.3,1.3,0.5,2.7,0.6,4h-11.6
		c-1.4,0-2.5,1.1-2.5,2.5c0,1.4,1.1,2.5,2.5,2.5h11.6c-0.1,1.4-0.3,2.7-0.5,4h-41.8c-1.4,0-2.5,1.1-2.5,2.5c0,1.4,1.1,2.5,2.5,2.5
		h40.5c-0.6,1.6-1.3,3.1-2.1,4.6h-58.6C127.8,370,128.4,368.5,128.9,367L128.9,367z M133.7,376.5h2.4c-1.6,4.2-2.7,8.7-3.3,13.3
		c-0.2,1.4,0.8,2.6,2.1,2.8c0.1,0,0.2,0,0.3,0c1.2,0,2.3-0.9,2.5-2.2c0.7-4.9,1.9-9.6,3.8-14h57.8c-5.2,13.8-5.2,30,0,43.8h-57.8
		c-2.6-6.2-4.1-13.2-4.3-20.4c0-1.4-1.2-2.4-2.5-2.4c-1.4,0-2.5,1.2-2.4,2.5c0.2,7,1.5,14,3.9,20.3h-2.4
		C127.7,406.7,127.7,390.2,133.7,376.5L133.7,376.5z"/>
</g>
<g id="dictionary">
	<path d="M152.6,443h98.2c0.9,0,1.7,0.7,1.7,1.7c0,0.9-0.7,1.7-1.7,1.7h-98.2c-0.9,0-1.7-0.7-1.7-1.7
		C150.9,443.8,151.7,443,152.6,443L152.6,443z M250.8,449.2h-98.2c-0.9,0-1.7,0.7-1.7,1.7s0.7,1.7,1.7,1.7h98.2
		c0.9,0,1.7-0.7,1.7-1.7S251.7,449.2,250.8,449.2L250.8,449.2z M276.5,338.4l-5.6,1.7l5.6,1.7c0.7,0.2,1.2,0.9,1.2,1.6v19.6
		c0,0.7-0.5,1.4-1.2,1.6l-5.6,1.7l5.6,1.7c0.7,0.2,1.2,0.9,1.2,1.6v19.6c0,0.7-0.5,1.4-1.2,1.6l-5.6,1.7l5.6,1.7
		c0.7,0.2,1.2,0.9,1.2,1.6v19.6c0,0.7-0.5,1.4-1.2,1.6l-5.6,1.7l5.6,1.7c0.7,0.2,1.2,0.9,1.2,1.6v19.6c0,0.7-0.5,1.4-1.2,1.6
		l-9.7,2.9v19.2c0,0.9-0.7,1.7-1.7,1.7H154.5c-8.4,0-18.2-5-18.2-19.3v-129c0-8.3,6.8-15.1,15.1-15.1h113.8c0.9,0,1.7,0.7,1.7,1.7
		v7.6l9.7,2.9c0.7,0.2,1.2,0.9,1.2,1.6v19.6C277.7,337.5,277.2,338.2,276.5,338.4L276.5,338.4z M155.1,439.2c-4.6,0-8.3,3.7-8.3,8.3
		s3.7,8.3,8.3,8.3h108.4v-16.7L155.1,439.2L155.1,439.2z M263.5,463.4v-4.3H155.1c-6.4,0-11.7-5.2-11.7-11.7s5.2-11.7,11.7-11.7
		h108.4v-3.5H152.3c-1.9,0-4.1,0.8-6.2,2.4c-0.3,0.2-0.6,0.3-1,0.3c-0.5,0-1-0.2-1.4-0.7c-0.5-0.8-0.4-1.8,0.4-2.3
		c2.7-1.9,5.6-3,8.1-3h0.6v-5.1c0-0.9,0.7-1.7,1.7-1.7c0.9,0,1.7,0.7,1.7,1.7v5.1h107.3V306.7H156.2v104.3c0,0.9-0.7,1.7-1.7,1.7
		c-0.9,0-1.7-0.7-1.7-1.7V306.7h-1.5c-6.5,0-11.7,5.3-11.7,11.7v129c0,15.2,12.4,15.9,14.9,15.9L263.5,463.4L263.5,463.4z
		 M274.4,423l-7.6-2.3v21.7l7.6-2.3V423z M274.4,396.9l-7.6-2.3v21.7l7.6-2.3V396.9z M274.4,370.7l-7.6-2.3v21.7l7.6-2.3V370.7z
		 M274.4,344.6l-7.6-2.3V364l7.6-2.3V344.6z M274.4,318.4l-7.6-2.3v21.7l7.6-2.3V318.4z M168.5,378.6l14.1-28.1
		c0.3-0.6,0.9-0.9,1.5-0.9s1.2,0.4,1.5,0.9l9.4,18.8c0,0,0,0,0,0l4.6,9.3c0.4,0.8,0.1,1.8-0.7,2.2c-0.2,0.1-0.5,0.2-0.7,0.2
		c-0.6,0-1.2-0.3-1.5-0.9l-4.2-8.5h-16.7l-4.2,8.5c-0.4,0.8-1.4,1.2-2.2,0.7C168.4,380.5,168.1,379.5,168.5,378.6L168.5,378.6z
		 M177.4,368.3h13.4l-6.7-13.4L177.4,368.3z M221.6,381.1h28.1c0.9,0,1.7-0.7,1.7-1.7s-0.7-1.7-1.7-1.7h-24.1l25.3-25.3
		c0.5-0.5,0.6-1.2,0.4-1.8c-0.3-0.6-0.9-1-1.5-1h-25c-0.9,0-1.7,0.7-1.7,1.7s0.7,1.7,1.7,1.7h20.9l-25.3,25.3
		c-0.5,0.5-0.6,1.2-0.4,1.8C220.3,380.7,220.9,381.1,221.6,381.1L221.6,381.1z M202.8,366.4h14.1c0.9,0,1.7-0.7,1.7-1.7
		c0-0.9-0.7-1.7-1.7-1.7h-14.1c-0.9,0-1.7,0.7-1.7,1.7C201.2,365.6,201.9,366.4,202.8,366.4L202.8,366.4z"/>
</g>
<g id="patch">
	<rect x="144.7" y="363" width="124.6" height="5.9"/>
	<rect x="144.7" y="392.7" width="100.8" height="5.9"/>
	<rect x="144.7" y="422.3" width="124.6" height="5.9"/>
	<rect x="144.7" y="452" width="106.8" height="5.9"/>
	<path d="M257.4,303.7h-8.9v5.9h3v3h5.9V303.7z"/>
	<rect x="212.9" y="303.7" width="11.9" height="5.9"/>
	<rect x="195.1" y="303.7" width="11.9" height="5.9"/>
	<rect x="230.7" y="303.7" width="11.9" height="5.9"/>
	<rect x="177.3" y="303.7" width="11.9" height="5.9"/>
	<rect x="159.6" y="303.7" width="11.9" height="5.9"/>
	<path d="M150.6,309.6h3v-5.9h-8.9v8.9h5.9L150.6,309.6L150.6,309.6z"/>
	<rect x="144.7" y="318.5" width="5.9" height="8.9"/>
	<path d="M144.7,339.3h8.9v-5.9h-3v-3h-5.9L144.7,339.3L144.7,339.3z"/>
	<rect x="159.6" y="333.4" width="11.9" height="5.9"/>
	<rect x="177.3" y="333.4" width="11.9" height="5.9"/>
	<rect x="195.1" y="333.4" width="11.9" height="5.9"/>
	<rect x="230.7" y="333.4" width="11.9" height="5.9"/>
	<rect x="212.9" y="333.4" width="11.9" height="5.9"/>
	<path d="M248.5,339.3h8.9v-8.9h-5.9v3h-3V339.3z"/>
	<g>
		<rect x="251.5" y="318.5" width="5.9" height="8.9"/>
	</g>
</g>
<g id="mirror">
	<path d="M175.2,334.4c3.4-3.4,7.2-6.5,11.3-9.1c1.2-0.8,1.6-2.4,0.8-3.6s-2.4-1.6-3.6-0.8c-4.3,2.8-8.4,6.1-12.1,9.8
		c-9.8,9.8-16.5,22.1-18.4,33.7c-1,6.1-1.5,17.4,6.3,25.2c5.4,5.4,12.6,6.8,18.6,6.8c2.5,0,4.8-0.3,6.6-0.5
		c11.6-1.9,23.9-8.6,33.7-18.4s16.5-22.1,18.4-33.7c1-6.1,1.5-17.4-6.3-25.2c-7.8-7.8-19.1-7.3-25.2-6.3c-3.8,0.6-7.8,1.8-11.7,3.4
		c-1.3,0.6-1.9,2.1-1.4,3.4c0.6,1.3,2.1,1.9,3.4,1.4c3.6-1.5,7.1-2.5,10.5-3.1c5.1-0.8,14.5-1.3,20.7,4.8c6.1,6.1,5.7,15.6,4.8,20.7
		c-1.7,10.6-7.9,21.8-16.9,30.9s-20.3,15.2-30.9,16.9c-5.1,0.8-14.5,1.3-20.7-4.8c-6.1-6.1-5.7-15.6-4.8-20.7
		C160,354.6,166.1,343.4,175.2,334.4z"/>
	<path d="M116.9,448.5c3,0,6-0.8,8.6-2.4c3.1-1.9,4.9-4.9,7-7.8c0.7-1,2.2-3.1,4.4-5.8c7-8.9,14.9-17.1,23.3-24.6
		c0.4-0.4,0.8-0.7,1.2-1.1c4.9,2,10.5,3.1,16.4,3.1c2.9,0,5.8-0.2,8.9-0.7c14.6-2.4,29.1-10.2,41-22.2
		c11.8-11.8,19.7-26.3,22.1-40.8c0.2-1.4-0.7-2.8-2.1-3s-2.8,0.7-3,2.1c-2.2,13.4-9.6,26.9-20.7,38c-13.9,13.9-31.2,21.4-46.2,21.4
		c-5.8,0-11.2-1.1-16-3.4c-3.1-1.5-6-3.5-8.4-5.9c0,0,0,0,0,0c-2.5-2.5-4.5-5.3-6-8.5c0,0,0,0,0-0.1c-4.5-9.6-4.4-21.9,0.4-34.9
		c0.5-1.3-0.2-2.8-1.5-3.3s-2.8,0.2-3.3,1.5c-5.1,13.7-5.3,26.8-0.9,37.4c-0.4,0.4-0.7,0.8-1.1,1.2c-9.2,10.2-19.2,19.8-30.5,27.7
		c-0.5,0.3-0.9,0.6-1.2,0.8c-2.6,1.7-4.9,3.5-6.6,6.2c-2.3,3.8-3,8.2-1.9,12.5s3.7,7.9,7.5,10.2C111,447.7,113.9,448.5,116.9,448.5z
		 M106,434.7c-0.7-2.8-0.3-5.8,1.2-8.3c1.5-2.6,4.1-4,6.4-5.7c5-3.5,9.7-7.3,14.2-11.4c4.6-4,8.9-8.3,13.1-12.7
		c1.4-1.4,2.7-2.9,3.8-4.1c-0.4,0.4,3.7,5,4.1,5.4c2.3,2.5,4.9,4.6,7.7,6.4c-1.2,1.1-2.7,2.4-4.1,3.8c-8.7,8.4-17.1,17.4-24.1,27.3
		c-1.5,2.1-2.6,4.3-4.7,5.8c-1.9,1.4-4.3,2.2-6.7,2.2C111.8,443.3,107.2,439.7,106,434.7z"/>
	<path d="M248.2,338c1.4-0.1,2.5-1.3,2.5-2.7c-0.4-10.5-4.1-19.6-10.7-26.2c-8.9-8.9-22-12.5-36.9-10.1c-14.6,2.4-29.1,10.2-41,22.2
		c-5.6,5.6-10.4,11.9-14.1,18.6c-0.7,1.3-0.2,2.8,1,3.5c0.4,0.2,0.8,0.3,1.3,0.3c0.9,0,1.8-0.5,2.3-1.3c3.5-6.3,8-12.1,13.3-17.4
		c22.8-22.8,54.5-28.2,70.6-12.1c5.7,5.7,8.9,13.6,9.2,22.7C245.5,336.9,246.7,338,248.2,338z"/>
</g>
<g id="reuse">
	<g>
		<path d="M157.1,375.6c0-26.1,21.3-47.4,47.4-47.4c2.3,0,4.7,0.2,6.9,0.5c-0.8,2.5-0.7,5.3,0.3,7.9c1.5,3.9,4.9,6.7,9.1,7.5
			l19.1,3.5c4.3,0.8,8.5-0.7,11.3-4.1c2.8-3.3,3.6-7.7,2.1-11.8l-6.6-18.3c-1.5-4.1-4.9-7-9.2-7.8c-4.1-0.7-8.1,0.6-10.9,3.5
			c-7.2-2.4-14.7-3.6-22.3-3.6c-38.7,0-70.2,31.5-70.2,70.2c0,6.3,5.1,11.4,11.4,11.4C152,387,157.1,381.9,157.1,375.6L157.1,375.6z
			 M145.7,381.4c-3.2,0-5.8-2.6-5.8-5.8c0-35.6,29-64.6,64.6-64.6c7.7,0,15.1,1.3,22.2,3.9c1.1,0.4,2.3,0.1,3.1-0.8l0.8-0.9
			c1.5-1.8,3.8-2.6,6.1-2.2c2.3,0.4,4.1,2,4.9,4.2l6.6,18.3c0.8,2.2,0.4,4.6-1.1,6.3c-1.5,1.8-3.8,2.6-6.1,2.2l-19.1-3.5
			c-2.2-0.4-4-1.9-4.8-4c-0.8-2.1-0.5-4.4,0.8-6.2c0.6-0.8,0.7-1.8,0.4-2.7c-0.3-0.9-1.1-1.6-2-1.8c-3.8-0.9-7.7-1.3-11.7-1.3
			c-29.2,0-53,23.8-53,53C151.5,378.8,148.9,381.4,145.7,381.4L145.7,381.4z M145.7,381.4"/>
	</g>
	<path d="M263.3,364.2c-6.3,0-11.4,5.1-11.4,11.4c0,26.1-21.3,47.4-47.4,47.4c-3.1,0-6.1-0.3-9.1-0.9c0.9-2.5,0.9-5.2,0-7.9
		c-1.3-4-4.6-6.9-8.7-7.9l-19-4.4c-4.2-1-8.5,0.3-11.5,3.5c-3,3.2-4,7.6-2.7,11.7l5.7,18.6c1.3,4.2,4.6,7.2,8.8,8.2
		c4,0.9,8.1-0.2,11-3c8.1,3.1,16.8,4.8,25.4,4.8c38.7,0,70.2-31.5,70.2-70.2C274.7,369.3,269.6,364.2,263.3,364.2L263.3,364.2z
		 M204.5,440.2c-8.5,0-17.2-1.7-25-5c-0.3-0.1-0.7-0.2-1.1-0.2c-0.8,0-1.5,0.3-2.1,0.9l-0.9,0.9c-1.6,1.7-3.9,2.4-6.2,1.9
		c-2.3-0.5-4-2.2-4.7-4.4l-5.7-18.6c-0.7-2.2-0.1-4.6,1.4-6.3c1.6-1.7,3.9-2.4,6.2-1.9l19,4.3c2.2,0.5,3.9,2,4.7,4.2
		c0.7,2.1,0.3,4.4-1.1,6.2c-0.6,0.7-0.8,1.7-0.5,2.6c0.3,0.9,1,1.6,1.9,1.9c4.5,1.3,9.3,1.9,14.1,1.9c29.2,0,53-23.8,53-53
		c0-3.2,2.6-5.8,5.8-5.8c3.2,0,5.8,2.6,5.8,5.8C269.1,411.2,240.1,440.2,204.5,440.2L204.5,440.2z M204.5,440.2"/>
	<path d="M237.6,332.8l1,2.8c0.4,1.1,1.5,1.8,2.6,1.8c0.3,0,0.7-0.1,1-0.2c1.5-0.5,2.2-2.1,1.7-3.6l-1-2.8c-0.5-1.5-2.1-2.2-3.6-1.7
		C237.8,329.8,237.1,331.4,237.6,332.8L237.6,332.8z M237.6,332.8"/>
	<path d="M234.5,324.3c0.4,1.1,1.5,1.8,2.6,1.8c0.3,0,0.7-0.1,1-0.2c1.5-0.5,2.2-2.1,1.7-3.6l-1.7-4.5c-0.5-1.5-2.1-2.2-3.6-1.7
		c-1.5,0.5-2.2,2.1-1.7,3.6L234.5,324.3z M234.5,324.3"/>
</g>
</svg>
